<svg xmlns="http://www.w3.org/2000/svg" width="25" height="25" fill="#ff5555" viewBox="0 0 25 25"><path d="M6.8 4.7h1.5v6.8H6.8V4.7zM11.8 4.7c-0.9 0-1.6 0.1-2.1 0.1v6.7h1.5V9.1c0.1 0 0.3 0 0.5 0 0.9 0 1.7-0.2 2.2-0.7 0.4-0.4 0.6-1 0.6-1.6 0-0.7-0.3-1.2-0.7-1.6C13.4 4.9 12.7 4.7 11.8 4.7zM11.7 8c-0.2 0-0.4 0-0.5 0V5.9c0.1 0 0.3-0.1 0.6-0.1 0.8 0 1.2 0.4 1.2 1C13 7.5 12.5 8 11.7 8zM10.1 0C5.5 0 1.8 3.7 1.8 8.3s8.3 11.9 8.3 11.9 8.3-7.3 8.3-11.9S14.7 0 10.1 0zM10.1 13.4c-3 0-5.5-2.5-5.5-5.5 0-3 2.5-5.5 5.5-5.5 3.1 0 5.5 2.5 5.5 5.5C15.7 10.9 13.2 13.4 10.1 13.4z" /></svg>