<svg xmlns="http://www.w3.org/2000/svg" fill="#ff5555" width="25" height="25" viewBox="0 0 270 270"><path color-rendering="auto" image-rendering="auto" shape-rendering="auto" color-interpolation="sRGB" d="M140 0c-9.7 0-18.9 4.3-26.7 11.5 -7.8 7.2-14.6 17.2-20.2 29.5 -1.1 2.3-2.1 4.8-3.1 7.3 -2.7-0.4-5.3-0.7-7.9-1 -4.2-0.4-8.2-0.6-12.1-0.5 -8.6 0.1-16.5 1.1-23.5 3.3 -10.2 3.2-18.5 8.9-23.4 17.4s-5.7 18.5-3.4 28.9c2.3 10.4 7.6 21.3 15.4 32.2 1.5 2.1 3.1 4.2 4.8 6.3 -1.7 2.1-3.3 4.2-4.8 6.3 -7.8 11-13.1 21.9-15.4 32.2 -0.7 3.1-1.1 6.1-1.2 9.1 -6 3.5-10 9.9-10 17.3 0 11 9 20 20 20 3.9 0 7.5-1.1 10.6-3.1 2.3 1.2 4.8 2.1 7.4 3 10.2 3.2 22.2 4 35.6 2.8 2.6-0.2 5.2-0.6 7.9-1 1 2.5 2 4.9 3.1 7.3 5.6 12.2 12.4 22.3 20.2 29.5C121.1 265.7 130.2 270 140 270c9.7 0 18.9-4.3 26.7-11.5 7.8-7.2 14.6-17.2 20.2-29.5 1.1-2.3 2.1-4.8 3.1-7.3 2.7 0.4 5.3 0.7 7.9 1 0.2 0 0.4 0 0.7 0 2 6 7.6 10.4 14.3 10.4 7.1 0 13.1-5 14.6-11.7 2.1-0.4 4.1-1 6.1-1.6 10.2-3.2 18.5-8.9 23.4-17.4 4.9-8.4 5.7-18.5 3.4-28.9 -2.3-10.4-7.6-21.3-15.4-32.2 -1.5-2.1-3.1-4.2-4.8-6.3 1.7-2.1 3.3-4.2 4.8-6.3 7.8-11 13.1-21.9 15.4-32.2 2.3-10.4 1.5-20.5-3.4-28.9 -4.9-8.4-13.2-14.2-23.4-17.4 -7-2.2-14.9-3.3-23.5-3.3 -3.9 0-8 0.2-12.1 0.5 -2.6 0.2-5.2 0.6-7.9 1 -1-2.5-2-4.9-3.1-7.3 -5.6-12.2-12.4-22.3-20.2-29.5C158.9 4.3 149.7 0 140 0L140 0zM140 10c6.8 0 13.5 2.9 20 8.9 6.5 6 12.7 14.9 17.9 26.3 0.7 1.6 1.4 3.2 2.1 4.9 -9.2 1.9-18.8 4.6-28.7 8.2 -2.8-3.3-7-5.2-11.3-5.2 -4.3 0-8.5 1.9-11.3 5.2 -9.9-3.5-19.5-6.3-28.7-8.2 0.7-1.7 1.4-3.3 2.1-4.9 5.2-11.3 11.4-20.3 17.9-26.3C126.5 12.9 133.2 10 140 10zM207.8 56.8c8.7-0.1 16.4 0.9 22.7 2.9 8.4 2.7 14.3 6.9 17.7 12.8 3.4 5.9 4.2 13.1 2.3 21.8 -1.9 8.6-6.6 18.5-13.8 28.6 -1 1.4-2.1 2.8-3.2 4.3 -8.6-9.7-19-19.3-30.9-28.4 -1.9-14.8-5-28.6-9.1-40.9 1.8-0.2 3.6-0.4 5.3-0.6C201.9 57 204.9 56.8 207.8 56.8L207.8 56.8zM72.1 56.8c2.9 0 5.9 0.2 9 0.5 1.7 0.2 3.5 0.4 5.3 0.6 -4.1 12.3-7.2 26.1-9.1 40.9 -11.9 9.1-22.3 18.7-30.9 28.4 -1.1-1.4-2.2-2.9-3.2-4.3 -7.2-10.2-11.9-20-13.8-28.6 -1.9-8.6-1.1-15.8 2.3-21.8 3.4-5.9 9.3-10.2 17.7-12.8C55.7 57.7 63.4 56.7 72.1 56.8L72.1 56.8zM183.6 59.5c3.2 9.4 5.8 19.8 7.7 31 -6-4.1-12.3-8.1-18.8-11.9 -5.9-3.4-11.7-6.5-17.6-9.4 0-0.4 0.1-0.9 0.1-1.3 0-0.2 0-0.3 0-0.5C164.9 64 174.5 61.3 183.6 59.5L183.6 59.5zM96.4 59.5c9.1 1.8 18.7 4.5 28.6 8 0 0.2 0 0.3 0 0.5 0 0.4 0 0.9 0.1 1.3 -5.8 2.9-11.7 6-17.6 9.4 -6.6 3.8-12.8 7.8-18.8 11.9C90.6 79.4 93.2 68.9 96.4 59.5L96.4 59.5zM150.8 78.5c5.6 2.7 11.2 5.7 16.7 8.9 9.2 5.3 17.8 11 25.8 16.9 1.1 9.8 1.7 20.1 1.7 30.7s-0.6 20.9-1.7 30.7c-8 5.9-16.6 11.6-25.8 16.9 -9.2 5.3-18.4 9.9-27.5 13.9 -9.1-3.9-18.3-8.6-27.5-13.9 -9.2-5.3-17.8-11-25.8-16.9 -1.1-9.8-1.7-20.1-1.7-30.7 0-10.6 0.6-20.9 1.7-30.7 8-5.9 16.6-11.6 25.8-16.9 5.6-3.2 11.2-6.2 16.7-8.9 2.8 2.9 6.7 4.6 10.8 4.6C144 83.1 147.9 81.4 150.8 78.5L150.8 78.5zM75.9 112.8c-0.6 7.2-0.9 14.7-0.9 22.2 0 7.6 0.3 15 0.9 22.2 -8.8-7.3-16.5-14.8-23-22.2C59.4 127.5 67.1 120.1 75.9 112.8zM204.1 112.8c8.8 7.3 16.5 14.8 23 22.2 -6.5 7.5-14.3 15-23 22.2 0.6-7.2 0.9-14.7 0.9-22.2C205 127.4 204.7 120 204.1 112.8L204.1 112.8zM46.4 142.8c8.6 9.7 19 19.3 30.9 28.4 1.9 14.8 5 28.6 9.1 40.9 -1.8 0.2-3.6 0.4-5.3 0.6 -12.4 1.1-23.3 0.3-31.7-2.4 -1.1-0.4-2.2-0.7-3.2-1.2 1.4-2.8 2.3-5.9 2.3-9.2 0-10.9-8.9-19.9-19.8-20 0.2-1.4 0.4-2.8 0.7-4.3 1.9-8.6 6.6-18.5 13.8-28.6C44.3 145.7 45.3 144.3 46.4 142.8zM233.6 142.8c1.1 1.4 2.2 2.9 3.2 4.3 7.2 10.2 11.9 20 13.8 28.6 1.9 8.6 1.1 15.8-2.3 21.8s-9.3 10.2-17.7 12.9c-1.4 0.4-2.8 0.8-4.3 1.1 -2.5-4.9-7.6-8.3-13.4-8.3 -6.3 0-11.8 4-14 9.6 0 0 0 0 0 0 -1.7-0.2-3.5-0.4-5.3-0.6 4.1-12.3 7.2-26.1 9.1-40.9 11.9-9.1 22.3-18.7 30.9-28.4L233.6 142.8zM191.3 179.4c-1.9 11.2-4.6 21.7-7.7 31 -9.7-1.9-20.1-4.9-30.8-8.8 6.5-3.1 13.1-6.6 19.7-10.4C179 187.5 185.3 183.5 191.3 179.4zM88.7 179.4c6 4.1 12.3 8.1 18.8 11.9 6.6 3.8 13.1 7.2 19.7 10.4 -10.7 3.9-21 6.9-30.8 8.8C93.2 201.1 90.6 190.6 88.7 179.4zM28.5 190c5.6 0 10 4.4 10 10 0 5.6-4.4 10-10 10 -5.6 0-10-4.4-10-10C18.5 194.4 22.9 190 28.5 190zM140 207.4c13.8 5.7 27.3 9.9 40 12.6 -0.7 1.7-1.4 3.3-2.1 4.9 -5.2 11.3-11.4 20.3-17.9 26.3 -6.5 6-13.2 8.9-20 8.9 -6.8 0-13.5-2.9-20-8.9 -6.5-6-12.7-14.9-17.9-26.3 -0.7-1.6-1.4-3.2-2.1-4.9C112.7 217.3 126.2 213.1 140 207.4L140 207.4zM212.8 213.1c2.8 0 5 2.2 5 5 0 2.8-2.2 5-5 5 -2.8 0-5-2.2-5-5C207.8 215.3 210 213.1 212.8 213.1z"/></svg>
