<svg xmlns="http://www.w3.org/2000/svg" fill="#ff5555" width="25" height="25" viewBox="0 0 438.5 438.5"><path d="M349.5 52.5c-10.7-10.7-23.6-16-38.8-16 -15.2 0-28.2 5.3-38.8 16 -10.7 10.7-16 23.6-16 38.8 0 9.9 2.5 19.1 7.4 27.6 4.9 8.5 11.6 15.1 20 19.8 0 9.9-0.8 18.6-2.4 26.1 -1.6 7.5-4.3 14.1-8 19.8 -3.7 5.7-7.6 10.6-11.6 14.6 -4 4-9.6 7.8-16.8 11.3 -7.2 3.5-13.9 6.5-20.1 8.9 -6.2 2.4-14.5 5.2-25 8.4 -19 5.9-33.7 11.3-44 16.3V102.2c8.4-4.8 15-11.4 20-19.8 4.9-8.5 7.4-17.7 7.4-27.6 0-15.2-5.3-28.2-16-38.8C156.1 5.3 143.1 0 127.9 0c-15.2 0-28.2 5.3-38.8 16C78.4 26.6 73.1 39.6 73.1 54.8c0 9.9 2.5 19.1 7.4 27.6 4.9 8.5 11.6 15.1 20 19.8v234.1c-8.4 4.8-15 11.4-20 19.8 -4.9 8.5-7.4 17.7-7.4 27.6 0 15.2 5.3 28.2 16 38.8s23.6 16 38.8 16c15.2 0 28.2-5.3 38.8-16 10.7-10.7 16-23.6 16-38.8 0-9.9-2.5-19.1-7.4-27.6 -4.9-8.5-11.6-15.1-20-19.8V328.9c0-13.1 3.9-22.6 11.8-28.5 7.9-5.9 24-12.7 48.4-20.3 25.7-8.2 45-15.9 58-23.1 42.6-24.2 64.1-63.6 64.5-118.2 8.4-4.8 15-11.4 20-19.8 4.9-8.5 7.4-17.7 7.4-27.5C365.4 76.1 360.1 63.2 349.5 52.5zM147.3 403.1c-5.3 5.3-11.8 8-19.4 8 -7.6 0-14.1-2.7-19.4-8 -5.3-5.3-8-11.8-8-19.4 0-7.6 2.7-14.1 8-19.4 5.3-5.3 11.8-8 19.4-8 7.6 0 14.1 2.7 19.4 8 5.3 5.3 8 11.8 8 19.4C155.3 391.3 152.7 397.8 147.3 403.1zM147.3 74.2c-5.3 5.3-11.8 8-19.4 8 -7.6 0-14.1-2.7-19.4-8 -5.3-5.3-8-11.8-8-19.4 0-7.6 2.7-14.1 8-19.4 5.3-5.3 11.8-8 19.4-8 7.6 0 14.1 2.7 19.4 8 5.3 5.3 8 11.8 8 19.4C155.3 62.4 152.7 68.9 147.3 74.2zM330 110.8c-5.3 5.3-11.8 8-19.4 8 -7.6 0-14.1-2.7-19.4-8 -5.3-5.3-8-11.8-8-19.4 0-7.6 2.7-14.1 8-19.4s11.8-8 19.4-8c7.6 0 14.1 2.7 19.4 8 5.3 5.3 8 11.8 8 19.4C338 99 335.4 105.5 330 110.8z"/></svg>
