<svg xmlns="http://www.w3.org/2000/svg" width="20" height="20" fill="#ff5555" viewBox="0 0 347.9 347.9"><path d="M44.3 61.1L157.8 29.1c7.4-2.1 19.8-2.3 27.6-0.5l118.2 27.6c7.7 1.8 8 5 0.6 7.1L190.7 95.3c-7.4 2.1-19.8 2.3-27.5 0.5L44.9 68.2C37.1 66.4 36.9 63.2 44.3 61.1z"/><path d="M166.9 298.5c0 3.8-0.7 7.3-1.9 10.3 -1.2 3-2.9 5.5-5 7.4 -2.1 1.9-4.5 3.3-7.2 3.9 -2.7 0.6-5.7 0.6-8.7-0.3L21.7 285.9c-2.9-0.8-5.6-2.3-8.1-4.3 -2.5-2-4.7-4.6-6.6-7.5 -1.9-2.9-3.4-6.2-4.5-9.6 -1.1-3.5-1.7-7.1-1.7-10.8L0 101.4c0-3.8 0.6-7.2 1.6-10.3 1.1-3 2.6-5.7 4.5-7.7s4.2-3.6 6.7-4.4c2.5-0.8 5.3-1 8.3-0.4l125.1 27.3c3.2 0.7 6.2 2.2 8.9 4.2 2.7 2.1 5.2 4.7 7.3 7.8 2.1 3.1 3.7 6.5 4.8 10.2 1.1 3.7 1.7 7.6 1.7 11.5L166.9 298.5z"/><path d="M347.1 253.7c0 3.7-0.6 7.3-1.7 10.8 -1.1 3.5-2.6 6.7-4.5 9.6 -1.9 2.9-4.1 5.5-6.6 7.5 -2.5 2-5.2 3.5-8.1 4.3l-122.4 33.9c-3.1 0.9-6 0.9-8.7 0.3 -2.7-0.6-5.2-2-7.2-3.9 -2.1-1.9-3.8-4.4-5-7.4 -1.2-3-1.9-6.5-1.9-10.3l-2-158.9c0-3.9 0.5-7.8 1.7-11.5 1.1-3.7 2.8-7.1 4.8-10.2 2.1-3.1 4.5-5.7 7.3-7.8 2.7-2 5.7-3.5 8.9-4.2l125.1-27.3c2.9-0.6 5.7-0.5 8.3 0.4 2.5 0.8 4.8 2.4 6.7 4.4 1.9 2.1 3.4 4.7 4.5 7.7 1.1 3 1.6 6.5 1.6 10.3L347.1 253.7z"/></svg>
