<svg xmlns="http://www.w3.org/2000/svg" width="150" height="75" viewBox="0 0 612 612" fill="#f8f8f2"><path d="M227.9 291.2L126.3 189.8l-14.9 14.8 91.1 90.8H0v21h202.5l-91.1 90.8 14.9 14.8 116.5-116.2L227.9 291.2 227.9 291.2zM210.5 308.5v-5.1l2.6 2.5L210.5 308.5zM306 284.9c-11.7 0-21.1 9.5-21.1 21.1 0 11.6 9.4 21.1 21.1 21.1 11.7 0 21.1-9.5 21.1-21.1C327.1 294.3 317.7 284.9 306 284.9zM612 295.5H409.5l91.1-90.8 -14.9-14.8L384.1 291.2l0 0 -14.9 14.8 116.5 116.2 14.9-14.8 -91.1-90.8H612V295.5zM401.5 308.5l-2.6-2.5 2.6-2.5V308.5z"/></svg>