<?xml version="1.0" encoding="UTF-8" standalone="no"?>
<svg width="480px" height="480px" viewBox="0 0 480 480" version="1.1" xmlns="http://www.w3.org/2000/svg" xmlns:xlink="http://www.w3.org/1999/xlink" style="background: #FFFFFF;">
    <!-- Generator: Sketch 39.1 (31720) - http://www.bohemiancoding.com/sketch -->
    <title>azulejo-12</title>
    <desc>Created with Sketch.</desc>
    <defs></defs>
    <g id="Page-1" stroke="none" stroke-width="1" fill="none" fill-rule="evenodd">
        <g id="azulejo-12">
            <polygon id="Rectangle-7" fill="#666B6D" points="0 0 160 79 240 240 80 159"></polygon>
            <polygon id="Rectangle-7-Copy-2" fill="#666B6D" points="240 0 400 79 480 240 320 159"></polygon>
            <polygon id="Rectangle-7-Copy" fill="#666B6D" points="0 239 160 318 240 479 80 398"></polygon>
            <polygon id="Rectangle-7-Copy-3" fill="#666B6D" points="240 239 400 318 480 479 320 398"></polygon>
            <polygon id="Rectangle-10" fill="#C8C5C2" points="80 159 240 239 160 319 0 239"></polygon>
            <polygon id="Rectangle-10-Copy-3" fill="#C8C5C2" points="320 159 480 239 400 319 240 239"></polygon>
            <polygon id="Rectangle-10-Copy" fill="#C8C5C2" points="240 0 160 80 0 0"></polygon>
            <polygon id="Rectangle-10-Copy-4" fill="#C8C5C2" points="480 0 400 80 240 0"></polygon>
            <polygon id="Rectangle-10-Copy-2" fill="#C8C5C2" transform="translate(120.000000, 439.000000) scale(-1, -1) translate(-120.000000, -439.000000) " points="240 399 160 479 0 399"></polygon>
            <polygon id="Rectangle-10-Copy-5" fill="#C8C5C2" transform="translate(360.000000, 439.000000) scale(-1, -1) translate(-360.000000, -439.000000) " points="480 399 400 479 240 399"></polygon>
        </g>
    </g>
</svg>