<svg xmlns="http://www.w3.org/2000/svg" width="25" height="25" fill="#ff5555" viewBox="0 0 999.9 999.9"><path d="M0 500c0-138 48.8-255.8 146.5-353.5C244.1 48.8 362 0 500 0 638 0 755.8 48.8 853.5 146.5c97.6 97.7 146.5 215.5 146.5 353.5s-48.8 255.8-146.5 353.5c-97.6 97.7-215.5 146.5-353.5 146.5 -138 0-255.8-48.8-353.5-146.5C48.8 755.8 0 638 0 500zM54.7 500c0 122.4 43.6 227.2 130.9 314.4 87.2 87.2 192 130.9 314.4 130.9 122.4 0 227.2-43.6 314.4-130.9 87.2-87.2 130.9-192 130.9-314.4 0-122.4-43.6-227.2-130.9-314.4C727.2 98.3 622.4 54.7 500 54.7c-122.4 0-227.2 43.6-314.4 130.9C98.3 272.8 54.7 377.6 54.7 500zM195.3 607.4c-2.6-2.6-2.6-5.2 0-7.8 5.2-5.2 11.7-7.2 19.5-5.9 7.8 1.3 12.4 2.6 13.7 3.9 9.1 3.9 19.2 12.7 30.3 26.4 11.1 13.7 19.9 23.1 26.4 28.3 31.2 26 63.1 28 95.7 5.9 2.6-9.1 6.8-16.9 12.7-23.4 5.9-6.5 11.4-11.1 16.6-13.7 5.2-2.6 14.3-6.5 27.3-11.7 -43-3.9-77.8-11.4-104.5-22.5s-47.8-25.1-63.5-42c-20.8-23.4-33.5-54-38.1-91.8 -4.6-37.8-1.6-72.3 8.8-103.5 7.8-19.5 18.9-37.1 33.2-52.7 -10.4-32.5-8.5-69.7 5.9-111.3 41.7 2.6 79.4 16.9 113.3 43 65.1-16.9 132.8-17.6 203.1-2 9.1-6.5 23.1-14.6 42-24.4 18.9-9.8 42.6-15.3 71.3-16.6 5.2 14.3 8.8 31.2 10.7 50.8s1 37.8-2.9 54.7c29.9 31.2 45.6 72.9 46.9 125 0 41.7-7.2 76.2-21.5 103.5s-39.7 50.1-76.2 68.4c-24.7 11.7-57.3 18.9-97.6 21.5 18.2 9.1 31.6 18.6 40 28.3 8.5 9.8 14 25.1 16.6 45.9v61.5c0 0 0.7 19.9 2 59.6 3.9 6.5 8.5 12 13.7 16.6 5.2 4.6 9.8 7.8 13.7 9.8 3.9 2 5.2 4.9 3.9 8.8 -1.3 3.9-6.5 5.9-15.6 5.9 -22.1 0-39.7-7.8-52.7-23.4 -3.9-6.5-5.9-14.3-5.9-23.4v-93.7c0-10.4-2.6-17.9-7.8-22.5 -5.2-4.6-10.4-7.5-15.6-8.8v123c0 22.1 2.6 36.5 7.8 43s8.5 13 9.8 19.5c1.3 1.3 0.3 2.3-2.9 2.9 -3.3 0.7-8.8-0.3-16.6-2.9 -16.9-3.9-28.6-12.7-35.2-26.4 -6.5-13.7-9.8-28.3-9.8-43.9V667.9h-25.4v121.1c0 15.6-3.3 30.6-9.8 44.9 -9.1 18.2-26 28-50.8 29.3 -3.9-1.3-5.9-2.6-5.9-3.9 1.3-1.3 5.2-7.8 11.7-19.5 1.3-2.6 2.9-7.8 4.9-15.6 2-7.8 2.9-16.9 2.9-27.3V673.8c-5.2 1.3-10.1 4.2-14.6 8.8s-6.8 12-6.8 22.5v93.7c0 9.1-2 16.9-5.9 23.4 -11.7 15.6-29.3 23.4-52.7 23.4 -9.1 0-14.3-2-15.6-5.9 -1.3-2.6-1-4.9 1-6.8s4.9-4.2 8.8-6.8c3.9-2.6 6.5-4.6 7.8-5.9 5.2-3.9 9.1-9.1 11.7-15.6 3.9-5.2 4.9-18.9 2.9-41s-2.3-36.5-1-43c-33.9 11.7-68.4 5.9-103.5-17.6 -10.4-10.4-20.8-25.4-31.2-44.9C234.4 643.8 218.7 626.9 195.3 607.4L195.3 607.4z"/></svg>