<svg xmlns="http://www.w3.org/2000/svg" fill="#ff5555" width="30" height="30" viewBox="0 0 24 24"><path d="M18.4 4c-0.1-0.3-0.3-0.6-0.6-0.8l-3.9-1.9c-0.6-0.3-1.6-0.2-2.1 0.3L11.1 2.3c-0.5 0.5-0.7 1.4-0.3 2.1l0 0.1c-0.4 0.3-0.6 0.7-0.6 1.2 0 0.3 0.1 0.6 0.3 0.9l-3.4 4.3c-0.1 0-0.2 0-0.3 0 -0.8 0-1.5 0.7-1.5 1.5 0 0.8 0.7 1.5 1.5 1.5 0.1 0 0.2 0 0.3 0l2.6 6c-1.6 0.3-2.7 1.6-2.7 3.3 0 0.2 0.2 0.4 0.4 0.4h5.8c0.2 0 0.4-0.2 0.4-0.4 0-1.7-1.3-3.2-3-3.3l-2.7-6.3c0.3-0.3 0.5-0.7 0.5-1.1 0-0.4-0.2-0.8-0.5-1.1l3.3-4.2c0.2 0.1 0.4 0.1 0.6 0.1 0.1 0 0.3 0 0.4-0.1l0.6 1.2c0.2 0.4 0.6 0.7 1 0.7 0.3 0 0.6-0.1 0.8-0.4l3.6-3.5C18.3 4.7 18.4 4.4 18.4 4zM12.6 22.6H7.6c0.2-1.2 1.2-2.1 2.5-2.1S12.4 21.4 12.6 22.6zM5.9 12.3c0-0.4 0.3-0.7 0.7-0.7s0.7 0.3 0.7 0.7c0 0.3-0.1 0.5-0.3 0.6 0 0 0 0-0.1 0 0 0-0.1 0-0.1 0.1 -0.1 0-0.1 0-0.2 0C6.3 13 5.9 12.7 5.9 12.3zM11 5.6c0-0.2 0.1-0.3 0.2-0.5l0.6 1.2C11.4 6.4 11 6 11 5.6zM17.5 4.4l-3.6 3.6c-0.2 0.2-0.4 0-0.5-0.1l-1.9-3.9c-0.2-0.3-0.1-0.9 0.2-1.1l0.7-0.7c0.2-0.2 0.5-0.3 0.7-0.3 0.2 0 0.3 0 0.4 0.1l3.9 1.9c0.1 0.1 0.2 0.1 0.2 0.2C17.6 4.2 17.6 4.3 17.5 4.4z"/><path d="M18.6 5.9c-0.1-0.2-0.5-0.2-0.6-0.1l-2.5 2.5c-0.1 0.1-0.1 0.2-0.1 0.3 0 0.1 0.1 0.2 0.2 0.3 0 0 0.4 0.3 1 0.3 0.6 0 1.1-0.3 1.6-0.8C19.2 7.4 18.9 6.3 18.6 5.9zM17.5 7.9c-0.4 0.4-0.8 0.6-1.1 0.5l1.7-1.7C18.1 7.1 18 7.5 17.5 7.9z"/><path d="M10.3 2.5c0.1 0 0.2 0 0.3-0.1l1.1-1.1c0.2-0.2 0.2-0.4 0-0.6s-0.4-0.2-0.6 0l-1.1 1.1c-0.2 0.2-0.2 0.4 0 0.6C10.1 2.5 10.2 2.5 10.3 2.5z"/></svg>
