<svg xmlns="http://www.w3.org/2000/svg" width="25" height="25" fill="#ff5555" viewBox="0 0 29.9 29.9"><path d="M27.6 0.7H2.4C1.1 0.7 0 1.7 0 3.1v23.8c0 1.3 1.1 2.4 2.4 2.4H27.6c1.3 0 2.4-1.1 2.4-2.4V3.1C29.9 1.7 28.9 0.7 27.6 0.7zM8.5 26.9H4.1v-14.2h4.3V26.9zM8.5 10.2l-4.3-1V6.4h4.3V10.2zM25.8 26.9h-4.3v-8.5c0-1.2-0.2-2.2-0.6-2.8 -0.4-0.6-1-0.9-2-0.9 -1.1 0-1.9 0.3-2.4 1 -0.5 0.7-0.6 1.8-0.6 3.3v7.8h-4.3V12h3.8v1.2l0.1 0.3c1.2-0.9 1.4-0.9 2.2-1.3 0.8-0.4 1.9-0.7 2.7-0.7 1.1 0 2 0.2 2.7 0.5 0.7 0.3 1.3 0.7 1.7 1.2 0.4 0.5 0.7 1.2 0.9 1.9s0.2 1.6 0.2 2.5v9.2H25.8z"/></svg>