<svg xmlns="http://www.w3.org/2000/svg" width="25" height="25" fill="#ff5555" viewBox="0 0 30.6 30.6"><path d="M1.3 17.8C0 7.8 3 4.6 3 4.6S2.7 4.8 2.9 6.2C2.9 6.3 2.9 6.4 2.9 6.4c0.2 1 0.8 0.2 0.8 0.2C7.6 0 12.5 0 12.5 0l-1.6 1.4C9.5 2.7 11.2 2.9 11.2 2.9l3.2-2.2c0.1 3.9 3.3 0.3 3.3 0.3l0.1 1.6c0.3-0.6 2.2-1.4 2.2-1.4 1.2 3 3.5 0.1 3.5 0.1 -0.5 0.3-0.6 2.6-0.6 2.6 0.8 2 2.9-1.4 2.9-1.4 0.8 0.7 0.6 4.1 0.6 4.1 0.7 0.1 1.3-2.6 1.3-2.6 0.6 0.4 0.7 4.8 0.7 4.8 0.7 0.5 1.3-1.7 1.3-1.7 0.3 3.3-1.5 11.8-1.5 11.8 -0.9 2.1-1.4 11.7-1.4 11.7 -0.8-0.4-1-1.7-1-1.7 0.7-5.4 0.7-9.2-0.3-12.1 -2.3-6.1-10.7-1.7-10.7-1.7C4.8 10.7 4 18.7 4 18.7c0.5 9.3-1.2 10.9-1.2 10.9S1.6 20.7 1.3 17.8zM25 21.9c0 2.1-0.6 4.3-3.1 4.3 -2.4 0-5.8-2.2-5.8-4.3 0-0.4 0.1-0.7 0.2-1H14.2c0.1 0.3 0.2 0.6 0.2 1 0 2.1-3.3 4.3-5.8 4.3 -2.4 0-3.1-2.2-3.1-4.3 0-2 1.7-2.8 3.9-3v0h11.5v0C23.2 19 25 19.9 25 21.9zM16.7 20.3c0.2-0.3 0.4-0.5 0.8-0.7h-4.3c0.3 0.2 0.5 0.4 0.8 0.7H16.7z"/></svg>