<svg xmlns="http://www.w3.org/2000/svg" width="25" height="25" viewBox="0 0 256 287" preserveAspectRatio="xMinYMin meet"><path d="M8 72.4L129.7 1.5 251.4 72.4 251.4 214 129.7 284.9 8 214 8 72.4Z" class="box"/><path d="M133.1 143.1L246.3 77.9 250.9 209.4 133.1 280.5 133.1 143.1Z" fill="#FFF"/><path d="M248 74L247.7 213.2 129.6 281.7 129 144.8 248 74 248 74ZM148.7 156.2L149 247.7 188.3 224.8 188.2 155.9 208 144.2 208 213.3 227.8 201.7 227.9 109.1 148.7 156.2 148.7 156.2Z" class="box"/><path d="M137.4 2.5C132-0.6 123.2-0.6 117.8 2.5L9.9 64.5C4.4 67.6 0.1 75.3 0.1 81.5L0.1 205.5C0.1 211.7 4.6 219.4 9.9 222.4L117.8 284.4C123.2 287.5 132 287.5 137.4 284.4L245.3 222.4C250.8 219.4 255.1 211.6 255.1 205.5L255.1 81.5C255.1 75.2 250.7 67.6 245.3 64.5L137.4 2.5 137.4 2.5ZM233.1 67.4C238.6 70.4 238.6 75.5 233.1 78.6L138.7 132.9C133.2 136 124.5 136 119 132.9L23.2 77.8C17.7 74.8 17.7 69.6 23.2 66.6L117.6 12.3C123.1 9.2 131.9 9.2 137.3 12.3L233.1 67.4 233.1 67.4ZM8.5 90.5C8.5 84.2 13 81.7 18.3 84.8L114.9 140.3C120.4 143.4 124.7 151.1 124.7 157.2L124.7 267.4C124.7 273.6 120.3 276.1 114.9 273.1L18.3 217.5C12.9 214.5 8.5 206.7 8.5 200.6L8.5 90.5 8.5 90.5ZM143.1 271.4C137.7 274.4 133.3 271.9 133.3 265.7L133.3 157.2C133.3 151 137.8 143.4 143.1 140.3L236.9 86.5C242.3 83.4 246.7 85.9 246.7 92.2L246.7 200.6C246.7 206.8 242.2 214.5 236.9 217.5L143.1 271.4 143.1 271.4Z" /></svg>