<svg xmlns="http://www.w3.org/2000/svg" fill="#ff5555" width="30" height="30" viewBox="0 0 24 24"><path d="M11.1 23v-1.2l-0.1-0.1c-0.1 0.1-0.2 0.1-0.4 0.1 0 0 0 0 0 0 -0.1 0-0.3 0-0.4-0.1v1.2c-0.4 0.2-0.8 0.6-0.8 1.1h2.3C11.7 23.6 11.4 23.2 11.1 23L11.1 23zM11.1 23"/><path d="M13.8 22.9v-1.2c-0.1 0.1-0.2 0.1-0.4 0.1 0 0 0 0 0 0 -0.1 0-0.3 0-0.4-0.1l-0.1 0.1v1.2c-0.4 0.2-0.6 0.6-0.6 1h2.3C14.6 23.5 14.3 23.1 13.8 22.9L13.8 22.9zM13.8 22.9"/><path d="M10.2 19.6v0.9c0.1-0.1 0.2-0.1 0.3-0.1 0.2 0 0.4 0.1 0.5 0.2l0-1L10.2 19.6z"/><path d="M13.1 19.5l0 1c0.1-0.1 0.3-0.2 0.5-0.2 0.1 0 0.2 0 0.3 0.1V19.6L13.1 19.5z"/><polygon points="10.9 14.8 9.3 14.8 9.4 15.6 9.6 19.3 10.2 19.3 11.1 19.3 13 19.3 13.8 19.3 14.4 19.3 14.6 15.6 14.7 14.8 13.1 14.8 "/><path d="M10.1 7.9c0 0.4-0.3 0.7-0.7 0.7 -0.4 0-0.7-0.3-0.7-0.7 0-0.4 0.3-0.7 0.7-0.7C9.8 7.2 10.1 7.5 10.1 7.9L10.1 7.9zM10.1 7.9"/><path d="M15.4 7.9c0 0.4-0.3 0.7-0.7 0.7 -0.4 0-0.7-0.3-0.7-0.7 0-0.4 0.3-0.7 0.7-0.7C15 7.2 15.4 7.5 15.4 7.9L15.4 7.9zM15.4 7.9"/><path d="M17.1 4.5h-2.2c-0.3-0.4-1.2-0.7-2.3-0.8l-0.6 0c0 0-0.1 0-0.1 0 0 0 0 0-0.1 0 -0.2-0.7-1-2.6-2.6-3.1C9.1 0.2 8.8 0 8.4 0 7.8 0 7.4 0.5 7.4 1c0 0.5 0.4 1 1 1 0.5 0 0.9-0.3 1-0.8 1.1 0.5 1.7 1.8 2 2.5 -1.1 0.1-2 0.4-2.3 0.8H6.9c-2.1 0 0 9.1 0 9.1h10.3C17.1 13.6 19.3 4.5 17.1 4.5zM7.8 7.9c0-0.9 0.7-1.6 1.6-1.6 0.9 0 1.6 0.7 1.6 1.6 0 0.9-0.7 1.6-1.6 1.6C8.5 9.6 7.8 8.8 7.8 7.9zM13.9 12h-3.8v-1.2h1.9 1.9V12zM14.6 9.6c-0.9 0-1.6-0.7-1.6-1.6 0-0.9 0.7-1.6 1.6-1.6 0.9 0 1.6 0.7 1.6 1.6C16.2 8.8 15.5 9.6 14.6 9.6z"/><path d="M16.8 19.6c0 0 0 0 0 0 0 0 0 0 0 0 0-0.2-0.2-0.4-0.4-0.4h-0.1v-1.4c-0.1 0.1-0.3 0.1-0.4 0.1 0 0 0 0 0 0 -0.1 0-0.3 0-0.4-0.1l0 0v1.4h-0.1c-0.2 0-0.4 0.2-0.4 0.4 0 0 0 0 0 0 0 0 0 0.1 0 0.1v0.5c0 0.2 0.1 0.3 0.3 0.3 0.2 0 0.3-0.1 0.3-0.3v-0.2l0.5 0v0.2c0 0.2 0.1 0.3 0.3 0.3 0.2 0 0.3-0.1 0.3-0.3L16.8 19.6zM16.8 19.6"/><path d="M14.8 15.8c0.2 0.2 0.4 0.5 0.5 0.8 0.1-0.1 0.3-0.2 0.6-0.2l0 0c0.1 0 0.2 0 0.3 0.1 -0.2-0.7-0.8-1.4-1.3-1.7L14.8 15.8z"/><circle cx="15.9" cy="17.1" r="0.5"/><path d="M9.1 14.8c-0.5 0.2-1.1 0.9-1.3 1.7 0.1 0 0.2-0.1 0.3-0.1l0 0c0.2 0 0.4 0.1 0.6 0.2 0.1-0.4 0.4-0.6 0.5-0.8L9.1 14.8z"/><path d="M7.2 20.1c0 0.2 0.1 0.3 0.3 0.3 0.2 0 0.3-0.1 0.3-0.3v-0.2l0.5 0v0.2c0 0.2 0.1 0.3 0.3 0.3 0.2 0 0.3-0.1 0.3-0.3v-0.5c0 0 0 0 0-0.1 0 0 0 0 0 0 0-0.2-0.2-0.4-0.4-0.4H8.5v-1.4l0 0c-0.1 0.1-0.2 0.1-0.4 0.1 0 0 0 0 0 0 -0.2 0-0.3-0.1-0.4-0.1v1.4H7.6c-0.2 0-0.4 0.2-0.4 0.4 0 0 0 0 0 0 0 0 0 0 0 0L7.2 20.1zM7.2 19.6"/><circle cx="8.1" cy="17.1" r="0.5"/><circle cx="10.6" cy="21.1" r="0.5"/><circle cx="13.5" cy="21.1" r="0.5"/></svg>
