<svg xmlns="http://www.w3.org/2000/svg" width="25" height="25" fill="#ff5555" viewBox="0 0 612 612"><path d="M588.1 199.3c-12-12.4-25.7-16.7-35.3-18.2 -8.3-62.4-15.9-94.8-276-94.8C16.8 86.3 0 125.5 0 193.5v11.6c0 18.4 14.9 33.3 33.3 33.3h83.4c18.4 0 33.3-14.9 33.3-33.3v-11.6c0-52.7 80.7-54.3 126.7-54.3 46 0 126.7 1.6 126.7 54.3v11.6c0 18.4 14.9 33.3 33.3 33.3h83.4c18.4 0 33.3-14.9 33.3-33.3v-4.5c6.1 1.5 13.9 4.8 20.8 11.9 16.7 17.3 22.3 50.9 16.1 96.9 -10.8 79.8-42.2 108.3-75.6 117.8v-13.9c0-14.1-3.5-28-10.7-40.2 -33.3-57.1-80.7-107.7-140.8-152.3v-33.7c0-2.6-2.1-4.8-4.8-4.8h-49.5c-2.7 0-4.8 2.1-4.8 4.8v33.5h-56.5v-33.5c0-2.6-2.1-4.8-4.8-4.8h-49.5c-2.6 0-4.8 2.1-4.8 4.8v33.5C128.6 265.4 81.2 316 47.8 373.2c-7.1 12.2-10.7 26.1-10.7 40.2v31.4c0 44.7 36.2 81 81 81h315.8c44 0 79.7-35.1 80.9-78.9 53.5-12.5 83.9-56.2 94.6-134.8C616.5 259.2 609.3 221.3 588.1 199.3zM358.7 414.2l-31.8-11.3c3.4-6.8 5.3-14.4 5.3-22.5 0-28-22.7-50.7-50.8-50.7 -28 0-50.8 22.7-50.8 50.7 0 28.1 22.8 50.8 50.8 50.8 10.4 0 20-3.1 28-8.5l17.4 28.6c-13.1 8.4-28.7 13.4-45.5 13.4 -46.6 0-84.3-37.8-84.3-84.3 0-46.5 37.7-84.3 84.3-84.3 46.6 0 84.3 37.8 84.3 84.3C365.8 392.4 363.3 403.9 358.7 414.2z"/></svg>
 