<svg xmlns="http://www.w3.org/2000/svg" viewBox="0 0 612 612" width="25" height="25" fill="#ff5555"><path d="M256.5 231.7c16.6 11.5 39.4 7.3 50.9-9.3l91.6-132.7c12-17.3 35.8-21.7 53.1-9.7l69.8 48.2c8.4 5.8 14 14.5 15.9 24.6 1.8 10-0.3 20.2-6.1 28.6l-91.6 132.7c-11.5 16.6-7.3 39.4 9.3 50.9 6.4 4.4 13.6 6.5 20.8 6.5 11.6 0 23.1-5.5 30.2-15.8l91.6-132.7c16.9-24.5 23.3-54.1 17.9-83.4 -5.4-29.3-21.8-54.7-46.3-71.6l-69.8-48.2C443.1-15.2 373.6-2.5 338.7 48.1l-91.6 132.7C235.6 197.4 239.8 220.2 256.5 231.7z"/><path d="M314 440.1l-132.7 91.6c-8.4 5.8-18.5 8-28.6 6.1 -10-1.8-18.8-7.5-24.6-15.9L79.9 452.1c-12-17.3-7.6-41.2 9.7-53.1l132.7-91.6c16.6-11.5 20.8-34.3 9.3-50.9 -11.5-16.6-34.3-20.8-50.9-9.3L48.1 338.7C-2.5 373.6-15.2 443.1 19.7 493.7l48.2 69.8c16.9 24.5 42.3 40.9 71.6 46.3 6.8 1.2 13.6 1.9 20.3 1.9 22.4 0 44.2-6.8 63.1-19.8l132.7-91.6c16.6-11.5 20.8-34.3 9.3-50.9C353.4 432.8 330.6 428.6 314 440.1z"/><path d="M426.2 202.8c-16.2-12.1-39.1-8.9-51.3 7.3l-70.6 94.2 -94.2 70.6c-16.2 12.1-19.5 35.1-7.3 51.2 7.2 9.6 18.2 14.6 29.3 14.6 7.6 0 15.4-2.4 21.9-7.3l98.4-73.8c2.8-2.1 5.2-4.5 7.3-7.3l73.8-98.4C445.7 237.9 442.4 215 426.2 202.8z"/><path d="M416.3 469.1l-8.7 113.6c-0.3 4.1 0.3 8.5 2 12.6 5.8 13.9 21.8 20.5 35.7 14.7 13.9-5.8 20.5-21.8 14.7-35.7L416.3 469.1z"/><path d="M611.9 432.7c-1.2-15-14.3-26.3-29.3-25.1l-113.6 8.7 105.2 43.7c3.8 1.6 8.2 2.3 12.6 2C601.8 460.9 613.1 447.8 611.9 432.7z"/></svg>